<svg id="Layer_1" data-name="Layer 1" xmlns="http://www.w3.org/2000/svg" width="48.39mm" height="48.39mm" viewBox="0 0 137.17 137.17"><defs><style>.cls-1{fill:#db0d18}.cls-2{fill:#fff}</style></defs><title>telephone</title><circle class="cls-1" cx="68.58" cy="68.58" r="68.58"/><path class="cls-2" d="M89.13 100.83h-.08c-11-.35-23.91-11-32.8-19.92s-19.56-21.8-19.91-32.76c-.12-3.86 9.33-10.71 9.42-10.77 2.47-1.72 5.21-1.1 6.33.45.75 1 7.9 11.88 8.68 13.11s.7 3.19-.32 5.11c-.55 1-2.38 4.27-3.25 5.79a76.76 76.76 0 0 0 8.47 9.65A77 77 0 0 0 75.33 80c1.52-.87 4.74-2.7 5.79-3.25 1.89-1 3.79-1.12 5.09-.33s12.12 8 13.11 8.68a3.75 3.75 0 0 1 1.49 2.79 5.42 5.42 0 0 1-1 3.55c-.09.06-6.81 9.39-10.68 9.39zM48.88 39.34a2.45 2.45 0 0 0-1.4.49c-3 2.09-8 6.83-8.14 8.2.32 10 10.53 22.25 19 30.76s20.75 18.72 30.73 19c1.39-.1 6.13-5.16 8.21-8.14.82-1.17.44-2 .27-2.17-.83-.58-11.67-7.8-13-8.58a2.79 2.79 0 0 0-2.13.42C81.19 80.05 76.06 83 76 83l-.76.43-.73-.43c-.15-.09-3.82-2.28-10.95-9.41s-9.32-10.8-9.41-11l-.44-.75.43-.75c0-.05 3-5.18 3.65-6.5a2.73 2.73 0 0 0 .44-2.11c-.74-1.17-7.88-12-8.58-13a1.12 1.12 0 0 0-.77-.14z"/></svg>